%TF.GenerationSoftware,KiCad,Pcbnew,8.0.8*%
%TF.CreationDate,2025-04-07T00:16:06+05:30*%
%TF.ProjectId,CA-3_PCB,43412d33-5f50-4434-922e-6b696361645f,rev?*%
%TF.SameCoordinates,Original*%
%TF.FileFunction,Legend,Top*%
%TF.FilePolarity,Positive*%
%FSLAX46Y46*%
G04 Gerber Fmt 4.6, Leading zero omitted, Abs format (unit mm)*
G04 Created by KiCad (PCBNEW 8.0.8) date 2025-04-07 00:16:06*
%MOMM*%
%LPD*%
G01*
G04 APERTURE LIST*
%ADD10C,0.150000*%
%ADD11C,0.120000*%
G04 APERTURE END LIST*
D10*
X98833333Y-51084819D02*
X98500000Y-50608628D01*
X98261905Y-51084819D02*
X98261905Y-50084819D01*
X98261905Y-50084819D02*
X98642857Y-50084819D01*
X98642857Y-50084819D02*
X98738095Y-50132438D01*
X98738095Y-50132438D02*
X98785714Y-50180057D01*
X98785714Y-50180057D02*
X98833333Y-50275295D01*
X98833333Y-50275295D02*
X98833333Y-50418152D01*
X98833333Y-50418152D02*
X98785714Y-50513390D01*
X98785714Y-50513390D02*
X98738095Y-50561009D01*
X98738095Y-50561009D02*
X98642857Y-50608628D01*
X98642857Y-50608628D02*
X98261905Y-50608628D01*
X99214286Y-50180057D02*
X99261905Y-50132438D01*
X99261905Y-50132438D02*
X99357143Y-50084819D01*
X99357143Y-50084819D02*
X99595238Y-50084819D01*
X99595238Y-50084819D02*
X99690476Y-50132438D01*
X99690476Y-50132438D02*
X99738095Y-50180057D01*
X99738095Y-50180057D02*
X99785714Y-50275295D01*
X99785714Y-50275295D02*
X99785714Y-50370533D01*
X99785714Y-50370533D02*
X99738095Y-50513390D01*
X99738095Y-50513390D02*
X99166667Y-51084819D01*
X99166667Y-51084819D02*
X99785714Y-51084819D01*
X131261905Y-90954819D02*
X131261905Y-89954819D01*
X131261905Y-89954819D02*
X131500000Y-89954819D01*
X131500000Y-89954819D02*
X131642857Y-90002438D01*
X131642857Y-90002438D02*
X131738095Y-90097676D01*
X131738095Y-90097676D02*
X131785714Y-90192914D01*
X131785714Y-90192914D02*
X131833333Y-90383390D01*
X131833333Y-90383390D02*
X131833333Y-90526247D01*
X131833333Y-90526247D02*
X131785714Y-90716723D01*
X131785714Y-90716723D02*
X131738095Y-90811961D01*
X131738095Y-90811961D02*
X131642857Y-90907200D01*
X131642857Y-90907200D02*
X131500000Y-90954819D01*
X131500000Y-90954819D02*
X131261905Y-90954819D01*
X132214286Y-90050057D02*
X132261905Y-90002438D01*
X132261905Y-90002438D02*
X132357143Y-89954819D01*
X132357143Y-89954819D02*
X132595238Y-89954819D01*
X132595238Y-89954819D02*
X132690476Y-90002438D01*
X132690476Y-90002438D02*
X132738095Y-90050057D01*
X132738095Y-90050057D02*
X132785714Y-90145295D01*
X132785714Y-90145295D02*
X132785714Y-90240533D01*
X132785714Y-90240533D02*
X132738095Y-90383390D01*
X132738095Y-90383390D02*
X132166667Y-90954819D01*
X132166667Y-90954819D02*
X132785714Y-90954819D01*
X100166666Y-39954819D02*
X100166666Y-40669104D01*
X100166666Y-40669104D02*
X100119047Y-40811961D01*
X100119047Y-40811961D02*
X100023809Y-40907200D01*
X100023809Y-40907200D02*
X99880952Y-40954819D01*
X99880952Y-40954819D02*
X99785714Y-40954819D01*
X101166666Y-40954819D02*
X100595238Y-40954819D01*
X100880952Y-40954819D02*
X100880952Y-39954819D01*
X100880952Y-39954819D02*
X100785714Y-40097676D01*
X100785714Y-40097676D02*
X100690476Y-40192914D01*
X100690476Y-40192914D02*
X100595238Y-40240533D01*
X93428571Y-44614700D02*
X94571429Y-44614700D01*
X106428571Y-44614700D02*
X107571429Y-44614700D01*
X107000000Y-45186128D02*
X107000000Y-44043271D01*
X145954819Y-90238094D02*
X144954819Y-90238094D01*
X144954819Y-90238094D02*
X144954819Y-89999999D01*
X144954819Y-89999999D02*
X145002438Y-89857142D01*
X145002438Y-89857142D02*
X145097676Y-89761904D01*
X145097676Y-89761904D02*
X145192914Y-89714285D01*
X145192914Y-89714285D02*
X145383390Y-89666666D01*
X145383390Y-89666666D02*
X145526247Y-89666666D01*
X145526247Y-89666666D02*
X145716723Y-89714285D01*
X145716723Y-89714285D02*
X145811961Y-89761904D01*
X145811961Y-89761904D02*
X145907200Y-89857142D01*
X145907200Y-89857142D02*
X145954819Y-89999999D01*
X145954819Y-89999999D02*
X145954819Y-90238094D01*
X145954819Y-88714285D02*
X145954819Y-89285713D01*
X145954819Y-88999999D02*
X144954819Y-88999999D01*
X144954819Y-88999999D02*
X145097676Y-89095237D01*
X145097676Y-89095237D02*
X145192914Y-89190475D01*
X145192914Y-89190475D02*
X145240533Y-89285713D01*
X121686666Y-39004819D02*
X121686666Y-39719104D01*
X121686666Y-39719104D02*
X121639047Y-39861961D01*
X121639047Y-39861961D02*
X121543809Y-39957200D01*
X121543809Y-39957200D02*
X121400952Y-40004819D01*
X121400952Y-40004819D02*
X121305714Y-40004819D01*
X122591428Y-39338152D02*
X122591428Y-40004819D01*
X122353333Y-38957200D02*
X122115238Y-39671485D01*
X122115238Y-39671485D02*
X122734285Y-39671485D01*
X144114700Y-78071428D02*
X144114700Y-76928571D01*
X144114700Y-65071428D02*
X144114700Y-63928571D01*
X144686128Y-64499999D02*
X143543271Y-64499999D01*
X125113333Y-71364819D02*
X124780000Y-70888628D01*
X124541905Y-71364819D02*
X124541905Y-70364819D01*
X124541905Y-70364819D02*
X124922857Y-70364819D01*
X124922857Y-70364819D02*
X125018095Y-70412438D01*
X125018095Y-70412438D02*
X125065714Y-70460057D01*
X125065714Y-70460057D02*
X125113333Y-70555295D01*
X125113333Y-70555295D02*
X125113333Y-70698152D01*
X125113333Y-70698152D02*
X125065714Y-70793390D01*
X125065714Y-70793390D02*
X125018095Y-70841009D01*
X125018095Y-70841009D02*
X124922857Y-70888628D01*
X124922857Y-70888628D02*
X124541905Y-70888628D01*
X125446667Y-70364819D02*
X126065714Y-70364819D01*
X126065714Y-70364819D02*
X125732381Y-70745771D01*
X125732381Y-70745771D02*
X125875238Y-70745771D01*
X125875238Y-70745771D02*
X125970476Y-70793390D01*
X125970476Y-70793390D02*
X126018095Y-70841009D01*
X126018095Y-70841009D02*
X126065714Y-70936247D01*
X126065714Y-70936247D02*
X126065714Y-71174342D01*
X126065714Y-71174342D02*
X126018095Y-71269580D01*
X126018095Y-71269580D02*
X125970476Y-71317200D01*
X125970476Y-71317200D02*
X125875238Y-71364819D01*
X125875238Y-71364819D02*
X125589524Y-71364819D01*
X125589524Y-71364819D02*
X125494286Y-71317200D01*
X125494286Y-71317200D02*
X125446667Y-71269580D01*
X101904761Y-57350057D02*
X101809523Y-57302438D01*
X101809523Y-57302438D02*
X101714285Y-57207200D01*
X101714285Y-57207200D02*
X101571428Y-57064342D01*
X101571428Y-57064342D02*
X101476190Y-57016723D01*
X101476190Y-57016723D02*
X101380952Y-57016723D01*
X101428571Y-57254819D02*
X101333333Y-57207200D01*
X101333333Y-57207200D02*
X101238095Y-57111961D01*
X101238095Y-57111961D02*
X101190476Y-56921485D01*
X101190476Y-56921485D02*
X101190476Y-56588152D01*
X101190476Y-56588152D02*
X101238095Y-56397676D01*
X101238095Y-56397676D02*
X101333333Y-56302438D01*
X101333333Y-56302438D02*
X101428571Y-56254819D01*
X101428571Y-56254819D02*
X101619047Y-56254819D01*
X101619047Y-56254819D02*
X101714285Y-56302438D01*
X101714285Y-56302438D02*
X101809523Y-56397676D01*
X101809523Y-56397676D02*
X101857142Y-56588152D01*
X101857142Y-56588152D02*
X101857142Y-56921485D01*
X101857142Y-56921485D02*
X101809523Y-57111961D01*
X101809523Y-57111961D02*
X101714285Y-57207200D01*
X101714285Y-57207200D02*
X101619047Y-57254819D01*
X101619047Y-57254819D02*
X101428571Y-57254819D01*
X102809523Y-57254819D02*
X102238095Y-57254819D01*
X102523809Y-57254819D02*
X102523809Y-56254819D01*
X102523809Y-56254819D02*
X102428571Y-56397676D01*
X102428571Y-56397676D02*
X102333333Y-56492914D01*
X102333333Y-56492914D02*
X102238095Y-56540533D01*
X102404761Y-69990057D02*
X102309523Y-69942438D01*
X102309523Y-69942438D02*
X102214285Y-69847200D01*
X102214285Y-69847200D02*
X102071428Y-69704342D01*
X102071428Y-69704342D02*
X101976190Y-69656723D01*
X101976190Y-69656723D02*
X101880952Y-69656723D01*
X101928571Y-69894819D02*
X101833333Y-69847200D01*
X101833333Y-69847200D02*
X101738095Y-69751961D01*
X101738095Y-69751961D02*
X101690476Y-69561485D01*
X101690476Y-69561485D02*
X101690476Y-69228152D01*
X101690476Y-69228152D02*
X101738095Y-69037676D01*
X101738095Y-69037676D02*
X101833333Y-68942438D01*
X101833333Y-68942438D02*
X101928571Y-68894819D01*
X101928571Y-68894819D02*
X102119047Y-68894819D01*
X102119047Y-68894819D02*
X102214285Y-68942438D01*
X102214285Y-68942438D02*
X102309523Y-69037676D01*
X102309523Y-69037676D02*
X102357142Y-69228152D01*
X102357142Y-69228152D02*
X102357142Y-69561485D01*
X102357142Y-69561485D02*
X102309523Y-69751961D01*
X102309523Y-69751961D02*
X102214285Y-69847200D01*
X102214285Y-69847200D02*
X102119047Y-69894819D01*
X102119047Y-69894819D02*
X101928571Y-69894819D01*
X102738095Y-68990057D02*
X102785714Y-68942438D01*
X102785714Y-68942438D02*
X102880952Y-68894819D01*
X102880952Y-68894819D02*
X103119047Y-68894819D01*
X103119047Y-68894819D02*
X103214285Y-68942438D01*
X103214285Y-68942438D02*
X103261904Y-68990057D01*
X103261904Y-68990057D02*
X103309523Y-69085295D01*
X103309523Y-69085295D02*
X103309523Y-69180533D01*
X103309523Y-69180533D02*
X103261904Y-69323390D01*
X103261904Y-69323390D02*
X102690476Y-69894819D01*
X102690476Y-69894819D02*
X103309523Y-69894819D01*
X134454819Y-45833333D02*
X135169104Y-45833333D01*
X135169104Y-45833333D02*
X135311961Y-45880952D01*
X135311961Y-45880952D02*
X135407200Y-45976190D01*
X135407200Y-45976190D02*
X135454819Y-46119047D01*
X135454819Y-46119047D02*
X135454819Y-46214285D01*
X134550057Y-45404761D02*
X134502438Y-45357142D01*
X134502438Y-45357142D02*
X134454819Y-45261904D01*
X134454819Y-45261904D02*
X134454819Y-45023809D01*
X134454819Y-45023809D02*
X134502438Y-44928571D01*
X134502438Y-44928571D02*
X134550057Y-44880952D01*
X134550057Y-44880952D02*
X134645295Y-44833333D01*
X134645295Y-44833333D02*
X134740533Y-44833333D01*
X134740533Y-44833333D02*
X134883390Y-44880952D01*
X134883390Y-44880952D02*
X135454819Y-45452380D01*
X135454819Y-45452380D02*
X135454819Y-44833333D01*
X139114700Y-39571428D02*
X139114700Y-38428571D01*
X139686128Y-38999999D02*
X138543271Y-38999999D01*
X139114700Y-52571428D02*
X139114700Y-51428571D01*
X109979761Y-96969819D02*
X109646428Y-96493628D01*
X109408333Y-96969819D02*
X109408333Y-95969819D01*
X109408333Y-95969819D02*
X109789285Y-95969819D01*
X109789285Y-95969819D02*
X109884523Y-96017438D01*
X109884523Y-96017438D02*
X109932142Y-96065057D01*
X109932142Y-96065057D02*
X109979761Y-96160295D01*
X109979761Y-96160295D02*
X109979761Y-96303152D01*
X109979761Y-96303152D02*
X109932142Y-96398390D01*
X109932142Y-96398390D02*
X109884523Y-96446009D01*
X109884523Y-96446009D02*
X109789285Y-96493628D01*
X109789285Y-96493628D02*
X109408333Y-96493628D01*
X110265476Y-95969819D02*
X110598809Y-96969819D01*
X110598809Y-96969819D02*
X110932142Y-95969819D01*
X111789285Y-96969819D02*
X111217857Y-96969819D01*
X111503571Y-96969819D02*
X111503571Y-95969819D01*
X111503571Y-95969819D02*
X111408333Y-96112676D01*
X111408333Y-96112676D02*
X111313095Y-96207914D01*
X111313095Y-96207914D02*
X111217857Y-96255533D01*
D11*
%TO.C,R2*%
X94960000Y-53000000D02*
X95730000Y-53000000D01*
X95730000Y-51630000D02*
X95730000Y-54370000D01*
X95730000Y-54370000D02*
X102270000Y-54370000D01*
X102270000Y-51630000D02*
X95730000Y-51630000D01*
X102270000Y-54370000D02*
X102270000Y-51630000D01*
X103040000Y-53000000D02*
X102270000Y-53000000D01*
%TO.C,D2*%
X125940000Y-87264000D02*
X125940000Y-87420000D01*
X125940000Y-89580000D02*
X125940000Y-89736000D01*
X125940000Y-87264484D02*
G75*
G02*
X129171397Y-87419939I1560000J-1235516D01*
G01*
X126459039Y-87420000D02*
G75*
G02*
X128540910Y-87419951I1040961J-1080000D01*
G01*
X128540910Y-89580049D02*
G75*
G02*
X126459039Y-89580000I-1040910J1080049D01*
G01*
X129171397Y-89580061D02*
G75*
G02*
X125940000Y-89735516I-1671397J1080061D01*
G01*
%TO.C,J1*%
X95290000Y-43090000D02*
X95290000Y-45910000D01*
X95290000Y-43090000D02*
X96990000Y-41790000D01*
X95290000Y-45910000D02*
X96990000Y-47210000D01*
X96990000Y-41790000D02*
X105710000Y-41790000D01*
X96990000Y-47210000D02*
X105710000Y-47210000D01*
X105710000Y-41790000D02*
X105710000Y-47210000D01*
%TO.C,D1*%
X139670000Y-87264000D02*
X139670000Y-87420000D01*
X139670000Y-89580000D02*
X139670000Y-89736000D01*
X139670000Y-87264484D02*
G75*
G02*
X142901397Y-87419939I1560000J-1235516D01*
G01*
X140189039Y-87420000D02*
G75*
G02*
X142270910Y-87419951I1040961J-1080000D01*
G01*
X142270910Y-89580049D02*
G75*
G02*
X140189039Y-89580000I-1040910J1080049D01*
G01*
X142901397Y-89580061D02*
G75*
G02*
X139670000Y-89735516I-1671397J1080061D01*
G01*
%TO.C,J4*%
X141290000Y-65790000D02*
X146710000Y-65790000D01*
X141290000Y-74510000D02*
X141290000Y-65790000D01*
X142590000Y-76210000D02*
X141290000Y-74510000D01*
X142590000Y-76210000D02*
X145410000Y-76210000D01*
X145410000Y-76210000D02*
X146710000Y-74510000D01*
X146710000Y-74510000D02*
X146710000Y-65790000D01*
%TO.C,R3*%
X121240000Y-73280000D02*
X122010000Y-73280000D01*
X122010000Y-71910000D02*
X122010000Y-74650000D01*
X122010000Y-74650000D02*
X128550000Y-74650000D01*
X128550000Y-71910000D02*
X122010000Y-71910000D01*
X128550000Y-74650000D02*
X128550000Y-71910000D01*
X129320000Y-73280000D02*
X128550000Y-73280000D01*
%TO.C,Q1*%
X100200000Y-62210000D02*
X103800000Y-62210000D01*
X100161522Y-62198478D02*
G75*
G02*
X102000000Y-57759999I1838478J1838478D01*
G01*
X102000000Y-57760000D02*
G75*
G02*
X103838478Y-62198478I0J-2600000D01*
G01*
%TO.C,Q2*%
X100700000Y-74850000D02*
X104300000Y-74850000D01*
X100661522Y-74838478D02*
G75*
G02*
X102500000Y-70399999I1838478J1838478D01*
G01*
X102500000Y-70400000D02*
G75*
G02*
X104338478Y-74838478I0J-2600000D01*
G01*
%TO.C,J2*%
X136290000Y-40290000D02*
X141710000Y-40290000D01*
X136290000Y-49010000D02*
X136290000Y-40290000D01*
X137590000Y-50710000D02*
X136290000Y-49010000D01*
X137590000Y-50710000D02*
X140410000Y-50710000D01*
X140410000Y-50710000D02*
X141710000Y-49010000D01*
X141710000Y-49010000D02*
X141710000Y-40290000D01*
%TO.C,RV1*%
X92575000Y-90719000D02*
X92575000Y-87310000D01*
X99025000Y-87310000D02*
X92575000Y-87310000D01*
X99025000Y-90719000D02*
X92575000Y-90719000D01*
X99025000Y-90719000D02*
X99025000Y-87310000D01*
X99025000Y-92310000D02*
X99025000Y-85720000D01*
X105375000Y-85720000D02*
X99025000Y-85720000D01*
X105375000Y-92310000D02*
X99025000Y-92310000D01*
X105375000Y-92310000D02*
X105375000Y-85720000D01*
X105375000Y-95385000D02*
X105375000Y-82645000D01*
X114445000Y-82645000D02*
X105375000Y-82645000D01*
X114445000Y-95385000D02*
X105375000Y-95385000D01*
X114445000Y-95385000D02*
X114445000Y-82645000D01*
%TD*%
M02*
