M48
; DRILL file {KiCad 8.0.8} date 2025-04-07T00:16:00+0530
; FORMAT={-:-/ absolute / inch / decimal}
; #@! TF.CreationDate,2025-04-07T00:16:00+05:30
; #@! TF.GenerationSoftware,Kicad,Pcbnew,8.0.8
; #@! TF.FileFunction,Plated,1,2,PTH
FMAT,2
INCH
; #@! TA.AperFunction,Plated,PTH,ComponentDrill
T1C0.0295
; #@! TA.AperFunction,Plated,PTH,ComponentDrill
T2C0.0315
; #@! TA.AperFunction,Plated,PTH,ComponentDrill
T3C0.0354
; #@! TA.AperFunction,Plated,PTH,ComponentDrill
T4C0.0394
; #@! TA.AperFunction,Plated,PTH,ComponentDrill
T5C0.0709
%
G90
G05
T1
X3.9657Y-2.3764
X3.9854Y-2.874
X4.0157Y-2.3764
X4.0354Y-2.874
X4.0657Y-2.3764
X4.0854Y-2.874
T2
X3.6976Y-2.0866
X4.0976Y-2.0866
X4.7323Y-2.885
X5.1323Y-2.885
T3
X4.9697Y-3.4843
X5.0697Y-3.4843
X5.5102Y-3.4843
X5.6102Y-3.4843
T4
X4.3533Y-3.4045
X4.3533Y-3.5045
X4.3533Y-3.6045
T5
X3.8583Y-1.752
X4.0551Y-1.752
X5.4724Y-1.6929
X5.4724Y-1.8898
X5.6693Y-2.6969
X5.6693Y-2.8937
M30
